<svg id="noun_link_1630227" xmlns="http://www.w3.org/2000/svg" width="21.735" height="21.735" viewBox="0 0 21.735 21.735">
  <g id="Group_22" data-name="Group 22" transform="translate(0 0)">
    <path id="Path_4" data-name="Path 4" d="M14.7,2.557A1.279,1.279,0,1,1,14.7,0h5.753a1.279,1.279,0,0,1,1.278,1.278V7.032a1.278,1.278,0,0,1-2.557,0V4.365l-7.406,7.406A1.278,1.278,0,1,1,9.963,9.963L17.37,2.557H14.7Zm4.475,9.589a1.278,1.278,0,0,1,2.557,0v8.31a1.279,1.279,0,0,1-1.278,1.278H1.278A1.279,1.279,0,0,1,0,20.456V1.278A1.279,1.279,0,0,1,1.278,0h8.31a1.279,1.279,0,1,1,0,2.557H2.557v16.62h16.62V12.146Z" transform="translate(0 0)"/>
  </g>
</svg>
