<?xml version="1.0" encoding="utf-8"?>
<!-- Generator: Adobe Illustrator 22.1.0, SVG Export Plug-In . SVG Version: 6.00 Build 0)  -->
<svg version="1.1" id="noun_link_1630227" xmlns="http://www.w3.org/2000/svg" xmlns:xlink="http://www.w3.org/1999/xlink" x="0px"
	 y="0px" viewBox="0 0 21.7 21.7" style="enable-background:new 0 0 21.7 21.7;" xml:space="preserve">
<style type="text/css">
	.st0{fill:#FFFFFF;stroke:#FFFFFF;stroke-width:0.75;stroke-miterlimit:10;}
</style>
<g id="Group_22" transform="translate(0 0)">
	<path id="Path_4" class="st0" d="M14.4,3c-0.7,0-1.2-0.5-1.2-1.2c0-0.7,0.5-1.2,1.1-1.2c0,0,0,0,0.1,0h5.3c0.7,0,1.2,0.5,1.2,1.2
		v5.4c0,0.7-0.5,1.2-1.2,1.2c-0.7,0-1.2-0.5-1.2-1.2V4.7l-6.8,7c-0.4,0.5-1.2,0.5-1.7,0.1c-0.5-0.5-0.5-1.2-0.1-1.7c0,0,0,0,0.1-0.1
		l6.8-7H14.4z M18.5,12.1c0-0.7,0.5-1.2,1.2-1.2c0.7,0,1.2,0.5,1.2,1.2v7.8c0,0.7-0.5,1.2-1.2,1.2H2c-0.7,0-1.2-0.5-1.2-1.2V1.8
		c0-0.7,0.5-1.2,1.2-1.2h7.7c0.7,0,1.2,0.5,1.2,1.2S10.4,3,9.8,3c0,0,0,0-0.1,0H3.2v15.6h15.4L18.5,12.1L18.5,12.1z"/>
</g>
</svg>
